<svg width="35" height="35" viewBox="0 0 35 35" fill="none" xmlns="http://www.w3.org/2000/svg">
<g id="Dashboard" clip-path="url(#clip0_1335_4663)">
<path id="Vector" d="M28.5556 18.4444H5.44444C4.65 18.4444 4 19.0944 4 19.8889V28.5556C4 29.35 4.65 30 5.44444 30H28.5556C29.35 30 30 29.35 30 28.5556V19.8889C30 19.0944 29.35 18.4444 28.5556 18.4444ZM9.77778 27.1111C8.18889 27.1111 6.88889 25.8111 6.88889 24.2222C6.88889 22.6333 8.18889 21.3333 9.77778 21.3333C11.3667 21.3333 12.6667 22.6333 12.6667 24.2222C12.6667 25.8111 11.3667 27.1111 9.77778 27.1111ZM28.5556 4H5.44444C4.65 4 4 4.65 4 5.44444V14.1111C4 14.9056 4.65 15.5556 5.44444 15.5556H28.5556C29.35 15.5556 30 14.9056 30 14.1111V5.44444C30 4.65 29.35 4 28.5556 4ZM9.77778 12.6667C8.18889 12.6667 6.88889 11.3667 6.88889 9.77778C6.88889 8.18889 8.18889 6.88889 9.77778 6.88889C11.3667 6.88889 12.6667 8.18889 12.6667 9.77778C12.6667 11.3667 11.3667 12.6667 9.77778 12.6667Z" fill="white"/>
</g>
<defs>
<clipPath id="clip0_1335_4663">
<rect width="35" height="35" fill="white"/>
</clipPath>
</defs>
</svg>
