<svg xmlns="http://www.w3.org/2000/svg" width="21" height="20" viewBox="0 0 21 20" fill="none">
<path d="M10.7144 18.3333C6.11194 18.3333 2.3811 14.6025 2.3811 9.99996C2.3811 5.39746 6.11194 1.66663 10.7144 1.66663C15.3169 1.66663 19.0478 5.39746 19.0478 9.99996C19.0478 14.6025 15.3169 18.3333 10.7144 18.3333ZM8.12277 10.975L8.1336 10.9691L8.8586 13.3608C8.95194 13.62 9.08027 13.6666 9.2361 13.645C9.39277 13.6241 9.47527 13.54 9.57777 13.4416L10.5678 12.485L12.6928 14.0583C13.0811 14.2725 13.3603 14.1616 13.4569 13.6983L14.8378 7.17996C14.9903 6.57329 14.7236 6.32996 14.2528 6.52329L6.14194 9.65663C5.5886 9.87829 5.59194 10.1883 6.04194 10.3258L8.12277 10.9758V10.975Z" fill="#1A74E4"/>
</svg>