<svg xmlns="http://www.w3.org/2000/svg" width="21" height="20" viewBox="0 0 21 20" fill="none">
<path d="M10.7144 18.3333C6.11194 18.3333 2.3811 14.6025 2.3811 9.99996C2.3811 5.39746 6.11194 1.66663 10.7144 1.66663C15.3169 1.66663 19.0478 5.39746 19.0478 9.99996C19.0478 14.6025 15.3169 18.3333 10.7144 18.3333ZM16.2728 9.99996C16.2642 9.76539 16.188 9.53831 16.0532 9.3461C15.9185 9.15389 15.7311 9.00475 15.5135 8.91666C15.2959 8.82858 15.0575 8.80531 14.827 8.84966C14.5965 8.89401 14.3838 9.00409 14.2144 9.16663C13.2665 8.52222 12.1521 8.16621 11.0061 8.14163L11.5478 5.54163L13.3311 5.91663C13.3523 6.11369 13.4431 6.29675 13.5871 6.43295C13.7311 6.56914 13.9189 6.64954 14.1168 6.65973C14.3148 6.66991 14.5099 6.60921 14.6671 6.48851C14.8243 6.36782 14.9334 6.19504 14.9747 6.00119C15.016 5.80734 14.9869 5.6051 14.8925 5.4308C14.7982 5.25649 14.6448 5.12152 14.4599 5.05011C14.275 4.97871 14.0707 4.97555 13.8837 5.04119C13.6966 5.10684 13.5391 5.23699 13.4394 5.40829L11.3978 4.99996C11.3644 4.99263 11.3299 4.99201 11.2962 4.99812C11.2626 5.00423 11.2305 5.01696 11.2018 5.03556C11.1732 5.05416 11.1484 5.07827 11.1292 5.10649C11.1099 5.13471 11.0964 5.16648 11.0894 5.19996L10.4728 8.09163C9.31267 8.10912 8.183 8.4654 7.22277 9.11663C7.0943 8.99575 6.94109 8.90426 6.77375 8.84848C6.60641 8.79271 6.42894 8.77399 6.25365 8.79362C6.07835 8.81325 5.90942 8.87076 5.75856 8.96216C5.6077 9.05357 5.47852 9.17668 5.37997 9.32298C5.28142 9.46927 5.21586 9.63524 5.18783 9.80939C5.1598 9.98354 5.16998 10.1617 5.21765 10.3315C5.26532 10.5014 5.34934 10.6588 5.4639 10.7929C5.57847 10.927 5.72082 11.0347 5.8811 11.1083C5.87172 11.2303 5.87172 11.3529 5.8811 11.475C5.8811 13.3416 8.0561 14.8583 10.7394 14.8583C13.4228 14.8583 15.5978 13.3416 15.5978 11.475C15.6072 11.3529 15.6072 11.2303 15.5978 11.1083C15.8034 11.0061 15.9759 10.8478 16.0954 10.6516C16.2148 10.4555 16.2763 10.2296 16.2728 9.99996V9.99996ZM7.93944 10.8333C7.93944 10.6123 8.02723 10.4003 8.18352 10.244C8.3398 10.0878 8.55176 9.99996 8.77277 9.99996C8.99378 9.99996 9.20575 10.0878 9.36203 10.244C9.51831 10.4003 9.6061 10.6123 9.6061 10.8333C9.6061 11.0543 9.51831 11.2663 9.36203 11.4225C9.20575 11.5788 8.99378 11.6666 8.77277 11.6666C8.55176 11.6666 8.3398 11.5788 8.18352 11.4225C8.02723 11.2663 7.93944 11.0543 7.93944 10.8333ZM12.7811 13.125C12.1899 13.5705 11.4624 13.7973 10.7228 13.7666C9.98309 13.7973 9.25567 13.5705 8.66444 13.125C8.629 13.0818 8.61089 13.027 8.61363 12.9712C8.61637 12.9154 8.63977 12.8626 8.67926 12.8231C8.71876 12.7836 8.77153 12.7602 8.82732 12.7575C8.88311 12.7547 8.93793 12.7729 8.9811 12.8083C9.48213 13.1758 10.0937 13.361 10.7144 13.3333C11.3359 13.3671 11.9504 13.1878 12.4561 12.825C12.4774 12.8011 12.5034 12.7819 12.5325 12.7685C12.5615 12.7551 12.593 12.7478 12.625 12.7471C12.657 12.7464 12.6888 12.7523 12.7184 12.7644C12.7481 12.7765 12.7749 12.7946 12.7972 12.8175C12.8196 12.8404 12.837 12.8676 12.8483 12.8976C12.8597 12.9275 12.8647 12.9594 12.8632 12.9914C12.8617 13.0234 12.8536 13.0547 12.8395 13.0834C12.8254 13.1121 12.8055 13.1376 12.7811 13.1583V13.125V13.125ZM12.6311 11.7C12.4663 11.7 12.3052 11.6511 12.1681 11.5595C12.0311 11.4679 11.9243 11.3378 11.8612 11.1855C11.7981 11.0333 11.7816 10.8657 11.8138 10.7041C11.8459 10.5424 11.9253 10.3939 12.0418 10.2774C12.1584 10.1608 12.3069 10.0815 12.4685 10.0493C12.6302 10.0172 12.7977 10.0337 12.95 10.0967C13.1023 10.1598 13.2324 10.2666 13.324 10.4037C13.4156 10.5407 13.4644 10.7018 13.4644 10.8666C13.469 10.9795 13.4505 11.0922 13.4101 11.1977C13.3697 11.3033 13.3083 11.3995 13.2296 11.4806C13.1509 11.5616 13.0565 11.6259 12.9521 11.6693C12.8478 11.7127 12.7358 11.7345 12.6228 11.7333L12.6311 11.7Z" fill="#8991A9"/>
</svg>