<svg xmlns="http://www.w3.org/2000/svg" width="21" height="20" viewBox="0 0 21 20" fill="none">
<path d="M19.1826 4.71339C18.5464 4.99481 17.8717 5.17962 17.1809 5.26173C17.9091 4.82626 18.454 4.14091 18.7143 3.33339C18.0309 3.74006 17.2818 4.02506 16.5009 4.17923C15.9765 3.61804 15.2812 3.24586 14.5234 3.12055C13.7656 2.99523 12.9876 3.1238 12.3103 3.48627C11.6331 3.84874 11.0946 4.4248 10.7785 5.12489C10.4625 5.82498 10.3866 6.60988 10.5626 7.35756C9.17687 7.28811 7.82122 6.928 6.58368 6.30061C5.34615 5.67323 4.25438 4.7926 3.37928 3.71589C3.06952 4.24794 2.90674 4.85275 2.90761 5.46839C2.90761 6.67673 3.52261 7.74423 4.45761 8.36923C3.90428 8.35181 3.36314 8.20238 2.87928 7.93339V7.97673C2.87944 8.78148 3.15792 9.56141 3.66748 10.1843C4.17705 10.8071 4.88635 11.2346 5.67511 11.3942C5.16146 11.5334 4.62287 11.5539 4.10011 11.4542C4.3225 12.1469 4.75595 12.7527 5.33977 13.1868C5.92359 13.6209 6.62855 13.8616 7.35594 13.8751C6.63301 14.4428 5.80526 14.8625 4.92001 15.1102C4.03476 15.3579 3.10938 15.4286 2.19678 15.3184C3.78986 16.3429 5.64436 16.8868 7.53844 16.8851C13.9493 16.8851 17.4551 11.5742 17.4551 6.96839C17.4551 6.81839 17.4509 6.66673 17.4443 6.51839C18.1267 6.0252 18.7156 5.41424 19.1834 4.71423L19.1826 4.71339Z" fill="#8991A9"/>
</svg>